<svg xmlns="http://www.w3.org/2000/svg" viewBox="0 0 1370 1370" role="img" aria-label="RepoYeti">
  <g id="_x23_ffffffff">
    <path d="M488,28.8C583.9,0,686.2-7.2,785.3,7.3c80.2,11.7,158.3,38,229.3,77,72.5,39.9,137.6,92.9,191.3,155.8,53.9,63,96.3,135.8,124.2,213.9,32.2,89.6,45,186,38.1,280.9-6.4,89.6-30.6,177.9-71.2,258.1-18.6,36.9-40.6,72-65.4,105-7,9.1-14,18.3-21.6,26.8-1.2-46.1-15.7-90.8-35.9-131.9,12.9,5.2,22.2,16,33.9,23.2-9.6-37.5-29.8-71.3-53.7-101.4-9.8-12.5-20.6-24.2-31.4-36,11.8.7,23,4.8,34.3,7.7-16.9-29.4-39.5-55.2-64.6-77.9-17.7-16-36.8-30.5-56.4-44.1,11.9-25.3,16.7-53.5,16.1-81.3,11.9,13.1,16.9,30.5,22.1,47.1,11.3-19.3,15.9-42,15.8-64.2-.3-30.9-9-61.3-22-89.2,15.5,7.4,28.6,19.1,40.5,31.2,1.7-18.5-3.1-37-9.8-54.1-6.2-16-14.4-31.1-22.8-46,29.5-19.3,53.5-47.2,67-79.9,15.2-36.2,17.2-77.5,6-115.1-7.5-25.4-20.4-49.3-38.2-69-7.6-8.8-15-17.9-24.4-24.8-4.3-3-9.2-5.9-14.6-6-6.1-.2-11.5,4.4-13.8,9.8-3,16.4,6.6,31.6,6.4,47.9,1.2,15.3-1.2,31-7.6,45-13,29.4-42.4,50-74,54.2-57.2-49.9-131.2-77.9-206.1-86.5,11.2-16.1,28.1-28.4,47.2-33.2-21.4-9.6-45.3-12.4-68.5-10.6-33.8,2.9-66.4,15.7-94.3,34.9.9-20.2,12.4-37.5,22.6-54.2-17,4.8-34,9.9-50.1,17.3-17,7.7-33,17.6-47.2,29.8-6.5,5.5-12.7,11.3-19,17.1-1.8,1.7-4.1,2.8-6.6,3.4-63.5,13.3-125.1,39.8-174.9,81.8-20.3-2.9-40.1-11.6-54.6-26.3-14.1-14-22.8-33-25.6-52.6-2.3-15.6-1-31.7,3.1-46.9,1-4,2.7-7.8,2.9-12,.4-4.9-.6-10.2-3.8-14.1-3.9-4.7-11.2-6.4-16.5-3.4-18.5,8.5-30.7,25.6-42.5,41.5-21.7,27.9-34.3,62.7-35.6,98-1.8,43.6,13.3,87.7,41.8,120.8,10.9,12.9,24,23.8,38.1,33-9.8,16.7-18.9,33.9-25.2,52.2-5.4,15.5-8.5,32-7.8,48.5,2.5-1.9,4.4-4.3,6.6-6.5,10-10.1,21.7-18.6,34.3-25.2-7.3,15.8-13.4,32.1-17.1,49.2-6,26.9-6.6,55.4,1.3,82,2.4,7.4,4.8,14.9,9,21.5,6.3-15.7,10.3-33.5,23-45.5-.8,27.5,4.2,55.6,16.6,80.3-29.8,20.5-58.6,43-83.1,69.8-14.5,16-27.6,33.4-37.7,52.5,11.1-3.4,22.3-6.9,33.9-7.9-19.5,21-38.5,42.7-53.8,67-13.9,21.8-25.1,45.5-31.4,70.6,11.9-6.8,21.2-17.6,34.1-22.8-20.5,40.2-34.6,84.4-35.9,129.7-.3,1.6.8,2.9,1.7,4.2-72.8-85.9-124-190-147.1-300.3-21-100-19.5-204.7,4.6-304.1,26.6-110.2,81.5-213.3,157.6-297.2,83.2-92.2,191.9-161.2,311-196.8v-.2Z"/>
    <path d="M783.1,319.5c37.1,3.2,74.5,9.7,108.3,26,24.6,11.8,47.1,29.9,60.5,54-19.6-9.2-40.2-19.6-62.5-18.3,7,9.3,10,21.2,9.6,32.8-.5,14.9-6.1,29.4-14.4,41.7h-.9c-3-23-15.3-46.5-37-56.6,1.5,17.9-2.9,36.1-11.6,51.7-11.5,20.8-30.1,37.4-51.8,47,8.9-29-1.8-63.5-27.2-80.7.9,1.6,2.4,3,2.7,4.9,2.9,18.8,3,38.4-1.8,56.9-.6,2.4-1.1,4.8-2.3,7-7.7-12.9-14.8-26.4-24.9-37.6-4.5-4.8-9.6-9.3-15.5-12.3-2.8,32,8.5,64.2,27.8,89.6-38-3.8-75.6-15.8-107.5-37.2-21.2-14.2-39.5-32.9-52.2-55h-.4c-4.7,17.2-3.4,35.9,3,52.5-17.2-6.2-33.2-15.7-46.4-28.3-15.8-14.8-27.4-35.1-28.4-57.1-12.9,10.5-21.3,26.2-23.3,42.6-10.8-12.5-17.9-28.1-21.1-44.2-3-15.2-2.3-31.4,3.7-45.9,13.4-7.1,27-14,41.5-18.7-6.5,12-13.5,24.8-12.7,38.9,11.8-13.7,26.9-25.5,45.1-28.7-4.9,14.6-4.3,30.6-.3,45.4,2.6,9.6,6.2,19,10.7,27.9,1.4-22.3,10.2-44.5,26.2-60.4,3.2,16.1,10.6,31.2,20.6,44.2,11.9,15.5,27.2,28.3,43.8,38.5,6,4,12.6,6.9,18.6,10.6,0-.3,0-.9,0-1.2-15.2-24.7-25.8-53.2-24.6-82.6,13.2,21.2,36,34.7,59.7,40.9-19.2-18-32-44.2-29.3-70.9.4-.8-.3-2.4.9-2.8,10.6,10.9,25.4,15.9,39.4,20.7,21.2,7.2,42.3,16.9,58.1,33.3-2.3-18-13.2-33.8-26.2-46-6.4-6.3-13.8-11.3-20.9-16.6,18.3,1.8,36.4,7.1,52.5,16.1,15,8.3,28.3,20.1,37,35,1.1,1.7,1.8,3.8,3.3,5.2-.5-1.9-.7-3.8-.9-5.8-2-21.6-12.4-42.2-28.8-56.5h-.2Z"/>
    <path d="M352.9,1095c-.6-44.7,9.9-90.5,34.8-128-8.4,37.6-11.7,76.5-8,114.9,3.8,38.2,15.3,76,36.5,108.1-7.9,35.5-9.8,73.8,3.8,108.2,3.8-7.6,7.8-15.3,13.6-21.6,2.3,16.6,5.5,33,9.4,49.3-44.3-16.8-87.1-38-126.8-63.8l.9-.2c-3.9-7.8-8.2-16-8.2-25s2.8-13.5,6.9-18.9c7.5,7.7,9.9,18.5,16.3,27,3.7,4.4,8,8.8,13.8,10.2,9.9,2.5,20.8-2.4,26.4-10.7,4.2-6.2,5.1-14.1,5-21.4-.6-17.8-8.5-34.2-13.1-51.2-7.1-25-11-50.8-11.4-76.8h.1Z"/>
    <path d="M991.3,1031c-1.1-21.5-4.7-42.8-9-63.8,1.3,2.2,2.7,4.5,4.1,6.7,18.4,29.7,28,64.4,30,99.2,2.6,44-5.6,88.2-20.5,129.5-3,10.3-4.7,21.4-2.5,32,.8,4.3,2.4,8.5,5.3,11.9,6.7,8.3,19.2,11.7,29,7,4.4-2,7.6-5.8,10.5-9.5,6-8.1,8.6-18.5,15.6-25.9,3.8,5.2,6.9,11.3,7.1,17.9.5,9.2-4,17.6-8.1,25.6.2.2.7.5.9.6-26.7,17.7-55.5,32.9-84.7,46.4-14.5,6.5-29.1,12.8-44.1,18.2.5-.2,1.5-.7,2-1,4.5-16,7.1-32.5,9.5-49,5,6.7,9.9,13.6,13.1,21.3,6-13.9,8.9-29,10-44.1,1.5-21.5-.9-43-5-64.1,6.8-10.7,12.8-22,17.7-33.8,16.4-39.4,21.5-82.8,19.1-125.2h0Z"/>
    <path d="M615.7,1268.8c31.7,13.8,66.7,17.6,101,16.7,5.6,5.7,9.5,12.8,11.8,20.4,4.1,13.3,4.6,27.4,6.2,41.2.9,7,.3,14.1.3,21.1-26.2,1.9-52.6,2.3-78.9,1.2-2.4-.2-4.8.6-7.1-.2h5.3c0-23.3,1.8-46.8,9-69.1-18.1-6-37.2-14.6-47.6-31.4h0Z"/>
  </g>
  <g id="_x23_000000ff">
    <path d="M291.5,214.5c5.4-3,12.7-1.2,16.5,3.4,3.2,3.9,4.2,9.2,3.8,14.1-.2,4.2-1.8,8-2.9,12-4.1,15.2-5.3,31.3-3.1,46.9,2.8,19.6,11.5,38.5,25.6,52.6,14.5,14.7,34.3,23.4,54.6,26.3,49.8-42.1,111.4-68.5,174.9-81.8,2.4-.5,4.7-1.6,6.6-3.4,6.3-5.8,12.5-11.6,19-17.1,14.2-12.2,30.2-22,47.2-29.8,16.1-7.4,33.1-12.5,50.1-17.3-10.2,16.7-21.6,34-22.6,54.2,27.9-19.2,60.5-32,94.3-34.9,23.2-1.9,47.2,1,68.5,10.6-19.1,4.9-36,17.1-47.2,33.2,74.9,8.5,148.9,36.6,206.1,86.5,31.6-4.1,61-24.8,74-54.2,6.4-14,8.8-29.7,7.6-45,0-16.3-9.4-31.5-6.4-47.9,2.3-5.4,7.7-10,13.8-9.8,5.4.1,10.3,3,14.6,6,9.4,6.9,16.9,16,24.4,24.8,17.8,19.7,30.7,43.6,38.2,69,11.2,37.6,9.2,78.9-6,115.1-13.5,32.7-37.5,60.6-67,79.9,8.3,14.9,16.5,30,22.8,46,6.7,17.1,11.5,35.6,9.8,54.1-12-12.2-25-23.8-40.5-31.2,13,27.9,21.7,58.2,22,89.2.2,22.2-4.4,44.9-15.8,64.2-5.1-16.5-10.2-34-22.1-47.1.6,27.8-4.2,56-16.1,81.3,19.6,13.6,38.7,28.1,56.4,44.1,25.1,22.7,47.7,48.5,64.6,77.9-11.4-2.9-22.5-7-34.3-7.7,10.8,11.7,21.5,23.4,31.4,36,23.8,30.1,44.1,63.9,53.7,101.4-11.7-7.2-21-18-33.9-23.2,20.2,41.1,34.8,85.8,35.9,131.9v.2c-35.2,42-75.5,79.7-119.6,112.2-4.3,3.3-9.1,6.2-13.2,9.7-7.6,5.3-15.7,9.9-23.1,15.5l-.4-.3c-.2-.2-.7-.5-.9-.6,4-8,8.5-16.4,8.1-25.6-.2-6.6-3.3-12.7-7.1-17.9-7.1,7.4-9.6,17.8-15.6,25.9-2.9,3.7-6.1,7.5-10.5,9.5-9.8,4.7-22.3,1.3-29-7-2.9-3.4-4.4-7.6-5.3-11.9-2.2-10.6-.5-21.7,2.5-32,15-41.3,23.2-85.5,20.5-129.5-2.1-34.8-11.6-69.4-30-99.2-1.4-2.2-2.8-4.4-4.1-6.7,4.3,21,7.9,42.3,9,63.8,2.4,42.4-2.7,85.8-19.1,125.2-4.9,11.8-10.8,23-17.7,33.8,4.1,21.1,6.5,42.6,5,64.1-1.1,15.1-4,30.1-10,44.1-3.2-7.8-8.1-14.7-13.1-21.3-2.4,16.4-5,32.9-9.5,49-.5.2-1.5.7-2,1-60.8,23-125.1,36.8-189.9,41.5,0-7,.5-14.1-.3-21.1-1.6-13.8-2-27.8-6.2-41.2-2.3-7.6-6.1-14.8-11.8-20.4-34.3.9-69.3-2.9-101-16.7,10.4,16.8,29.5,25.4,47.6,31.4-7.2,22.3-8.9,45.8-9,69.1h-5.3c-70.3-4-140.1-18.1-206-43.2-4-16.3-7.1-32.7-9.4-49.3-5.8,6.3-9.8,14-13.6,21.6-13.6-34.4-11.7-72.7-3.8-108.2-21.2-32.2-32.8-70-36.5-108.1-3.7-38.4-.4-77.3,8-114.9-24.9,37.6-35.5,83.3-34.8,128,.4,25.9,4.3,51.8,11.4,76.8,4.6,17,12.5,33.4,13.1,51.2,0,7.3-.8,15.2-5,21.4-5.6,8.3-16.5,13.3-26.4,10.7-5.8-1.4-10.1-5.8-13.8-10.2-6.4-8.4-8.8-19.3-16.3-27-4.1,5.4-7,12-6.9,18.9,0,9,4.3,17.1,8.2,25l-.9.2c-6.7-4.2-13.6-8.7-20.3-13.1-15.3-11.1-30.7-22-45-34.3-2.1-2.1-5.1-3.2-6.9-5.6-23-19.1-44.3-40.2-64.8-62-5.7-6.8-11.7-13.2-17.4-20-.9-1.3-2-2.6-1.7-4.2,1.4-45.4,15.4-89.5,35.9-129.7-12.9,5.2-22.2,16-34.1,22.8,6.3-25.1,17.4-48.9,31.4-70.6,15.3-24.3,34.3-46,53.8-67-11.6,1-22.8,4.5-33.9,7.9,10.1-19.1,23.2-36.5,37.7-52.5,24.5-26.8,53.2-49.3,83.1-69.8-12.4-24.7-17.4-52.8-16.6-80.3-12.7,12-16.7,29.8-23,45.5-4.2-6.6-6.6-14.1-9-21.5-8-26.5-7.3-55.1-1.3-82,3.7-17,9.8-33.4,17.1-49.2-12.6,6.6-24.2,15-34.3,25.2-2.2,2.2-4.1,4.7-6.6,6.5-.8-16.5,2.4-32.9,7.8-48.5,6.4-18.3,15.4-35.5,25.2-52.2-14.1-9.3-27.2-20.2-38.1-33-28.5-33-43.6-77.2-41.8-120.8,1.3-35.3,13.8-70.1,35.6-98,11.8-15.8,23.9-33,42.5-41.5M783.1,319.5c16.3,14.3,26.8,34.9,28.8,56.5,0,1.9.3,3.9.9,5.8-1.5-1.5-2.2-3.5-3.3-5.2-8.7-14.9-22-26.7-37-35-16.1-9-34.2-14.2-52.5-16.1,7.1,5.3,14.6,10.4,20.9,16.6,13,12.2,23.9,27.9,26.2,46-15.8-16.3-36.9-26.1-58.1-33.3-14.1-4.8-28.8-9.9-39.4-20.7-1.1.3-.5,1.9-.9,2.8-2.7,26.7,10.1,53,29.3,70.9-23.7-6.2-46.5-19.7-59.7-40.9-1.2,29.3,9.4,57.9,24.6,82.6,0,.3,0,.9,0,1.2-6.1-3.8-12.6-6.7-18.6-10.6-16.6-10.2-31.9-23-43.8-38.5-10-13-17.4-28.1-20.6-44.2-16,15.9-24.8,38.1-26.2,60.4-4.4-9-8.1-18.3-10.7-27.9-4-14.8-4.6-30.7.3-45.4-18.2,3.2-33.3,15-45.1,28.7-.8-14.1,6.2-26.9,12.7-38.9-14.5,4.8-28.1,11.6-41.5,18.7-6,14.5-6.7,30.6-3.7,45.9,3.2,16.2,10.3,31.7,21.1,44.2,2-16.5,10.4-32.2,23.3-42.6,1,22,12.6,42.3,28.4,57.1,13.2,12.6,29.3,22.1,46.4,28.3-6.4-16.6-7.7-35.3-3-52.5h.4c12.8,22.1,31,40.9,52.2,55,31.8,21.4,69.4,33.3,107.5,37.2-19.3-25.4-30.6-57.5-27.8-89.6,6,3,11,7.4,15.5,12.3,10.2,11.2,17.2,24.7,24.9,37.6,1.3-2.1,1.7-4.6,2.3-7,4.7-18.6,4.7-38.1,1.8-56.9-.2-1.9-1.8-3.3-2.7-4.9,25.4,17.1,36.1,51.7,27.2,80.7,21.7-9.5,40.3-26.2,51.8-47,8.7-15.6,13.1-33.8,11.6-51.7,21.8,10.1,34,33.6,37,56.6h.9c8.2-12.3,13.9-26.8,14.4-41.7.4-11.5-2.5-23.5-9.6-32.8,22.3-1.4,42.9,9,62.5,18.3-13.4-24.2-35.8-42.2-60.5-54-33.8-16.2-71.2-22.8-108.3-26h.2Z" fill="#fff"/>
  </g>
</svg>
