<svg xmlns="http://www.w3.org/2000/svg" viewBox="0 0 5866.8 1438.4" role="img" aria-label="RepoYeti">
  <g id="_x23_ffffffff">
    <path d="M5612.5,15.5c3.6-13.1,20.9-19.7,32.5-12.6,6.9,4.1,10.2,12.3,10.8,20,1.5,14.2-3.2,29.4,3.3,42.8,4.6,1,8.6-1.9,12.2-4.3,6.3-4.4,12.2-9.6,19-13.2,7.7-4.4,18.6-3,24.6,3.7,5.5,6,7.7,14.7,6.3,22.6-.8,4.9-4.1,8.9-7.1,12.7-15.8,19-40.1,29.4-53.2,50.8-4.1,6.9-6.1,15-5.8,23,.7,12.3-.9,24.7,0,37.1.4,5.1,1.1,10.4,3.4,15.1,3.5,4.4,10,3.3,14.5,1.1,9.9-4.9,19.3-10.7,29.2-15.7,9.2-4.8,18.3-10,25.6-17.5,4.4-4.3,6.8-10.2,8.5-16,4.9-17.5,5.6-35.9,10.1-53.5,1.7-6.3,3.8-12.7,8.2-17.7,4.7-5.4,12.4-6.4,19.1-6.4,7.6,0,16.5,3.5,19,11.4,3.4,11.6-2.4,23.5-.5,35.3.4,2.8,2.4,5.7,5.6,5.6,5-.1,9.4-2.9,13.6-5.3,7-4.4,14-8.9,21.6-12.2,6.8-3,14.7-4.9,21.8-2,5.5,2,9.4,7.2,10.8,12.8,2.2,8.3.6,18-5.6,24.3-3.6,4-8.5,6.4-13.2,8.9-6.7,3.6-13.7,6.7-19.9,11-3.3,2.4-7.5,5.3-7.4,9.9.5,3.6,3.8,5.8,6.7,7.5,7.8,4.5,17.1,6.3,24.2,12,11.4,9.6,8.3,30.9-5.5,36.7-11.9,3.7-24.3-1-35.3-5.4-11.7-4.8-23.1-10.7-35.2-14.3-8.2-2.4-17.3-3.9-25.6-1-18.2,7.9-34.7,18.8-51.9,28.6-3.8,2.2-8.3,4.4-9.6,8.9-1,4.7,2.9,8.5,6.2,11.2,11.8,9.3,26.3,14.2,39.1,21.9,4.1,3.1,8.2,6.6,13.4,8,12.1,3.8,25,.5,36.7-3.4,13.7-4.6,26.7-10.9,40.7-14.6,7.6-1.9,16.2-2.9,23.4.9,5,3,9.2,7.9,10.3,13.8,1.6,5.9,1.1,13.1-3.6,17.6-6.5,6.3-15.8,8.2-23.4,12.7-4.1,2.2-7.5,5.5-9.3,9.8,4.8,10.7,16.5,14.9,26.1,20.1,7.2,3.8,14.9,8.6,17.9,16.7,4.3,10-.9,22.8-10.9,27.1-5.1,1.9-10.9,2.9-16.1.9-12.2-4.2-22.7-12.3-34.9-16.7-3.1-1-7-2.1-9.6.4-2.5,2.8-1.8,7-1.6,10.4.7,9.5,4.2,19.3.9,28.7-5.5,13.9-25.2,18.6-36.7,9.2-4-3.2-6.4-8-7.4-12.9-6.6-21.4-6.1-44.5-14.3-65.5-1.8-4-3.1-8.3-6.4-11.3-14.8-14.6-34.6-22-51.6-33.4-4.3-2.6-10.2-5.6-14.8-2.2-4.6,4-4.8,10.7-5.1,16.4.1,17.9-2.3,36.1,1.2,53.8,2.1,10.9,9.9,19.5,18,26.6,9.8,8.6,19.8,17.1,29.7,25.6,5.7,3.8,11,8.6,13.9,15,4,8.3,2.9,19-3.2,26-4.5,5.5-12,8.2-19,7.2-7.6-1-14.1-5.6-19.6-10.6-4.5-3.3-8.7-7.7-14.4-8.8-3.6-.6-5.7,3.1-6.1,6.1-2.8,14.9,2.5,30.7-3.4,45.1-5.5,13.8-26.2,17.3-36.3,6.7-6.6-6.4-7.5-16.1-7.2-24.7,0-10.6,2.1-22.1-3.1-31.8-.9-2.6-4.2-2-6.2-1.5-6.4,2.3-11.1,7.5-16.4,11.6-5.4,4.5-11.8,9.4-19.2,8.5-6.2,0-12-3.6-15.2-8.8-5.2-8.1-4.8-19,0-27.1,5.2-9.1,13.4-16,21.4-22.6,9-7.3,18.5-14,26.8-22.2,4.2-4.3,8.2-9,10.5-14.6,3.3-10.2,2.7-21,2.3-31.5-.6-9.6,0-19.3,0-29-.2-5-.1-10.3-2.8-14.7-3-4.2-8.8-2-12.7-.7-14,5.7-26.2,15-38.9,23-4.4,3-9.5,4.9-13.2,8.8-9,8.8-12.9,21.3-15.5,33.2-2,9.4-3.3,18.9-5.4,28.2-.7,3.4-2.1,6.7-2.4,10.2-.9,9-5.6,17.8-13.4,22.7-9.2,5.8-22.7,3.5-29.3-5.2-5.3-7.9-2.9-17.8-1.7-26.6.7-5.6,2.4-11.8-.4-17.1-2.2-3.6-7-2.9-10.4-1.7-9.4,3.2-17.5,9-26.1,13.6-5.4,3.2-11.4,5.6-17.7,5.8-12,0-22.1-11.7-21.5-23.5.2-5.6,3.2-10.7,7.3-14.3,9.5-8.4,22.1-12,31.6-20.3,2.6-2.3,4.7-5.1,6.2-8.3-3.5-8.1-12.7-10.6-20.1-13.6-6.8-2.8-15.1-5.8-17.4-13.5-1.8-8.7,1.8-17.9,7.7-24.2,6.2-7,16.6-7.1,25.2-6.2,22.5,3.5,41.3,18.5,63.8,22,12.8,1.3,24.7-5,35.3-11.6,9.2-5.8,17.9-12.2,27.3-17.6,4.6-2.6,9.9-4.5,13.5-8.7,1.9-2,.7-5.1-1.4-6.5-16.9-13-36-22.7-54.5-33.3-11.8-6.4-26-4.8-38.2-.6-12.9,4.3-25,10.7-38,15-7.4,2.4-15.3,4-23.1,3.2-15.5-.5-24.6-23.1-13.3-34,5.9-5,13.6-7.3,20.4-10.8,4.5-2.4,9.8-4.6,12.4-9.3,1.6-3.6-1.3-7-3.9-9.1-8-6-17.2-10.1-25.6-15.4-6.1-3.9-12.1-8.9-14.5-16-2.1-5.9-1.1-12.8,2.9-17.6,6.4-8.3,18.3-11.1,28.2-8,12.2,4.7,22.2,13.8,34.6,18.3,3.7,1.5,9.2,1.6,11.1-2.6,3.7-7.8-.3-16.1-1.2-24.1-1-7.1-1.2-15.5,4.1-21,8-7.6,21.5-8,30.1-1.1,5.7,4.5,8.7,11.4,10.7,18.2,3.8,13.7,4.4,28,7,41.9,1.9,9.9,4.5,20.2,11,28.1,3.2,4,7.6,6.6,12.2,8.8,14.1,8,27,18.2,42,24.7,4.2,1.5,9.5,3.7,13.8,1.1,2.7-3.6,3.1-8.2,3.8-12.6,1.7-15.3,1-30.8,0-46.2-.7-5.8-.3-12-3.3-17.2-5.8-10.8-15.8-18.3-25.1-25.9-10.3-8.3-21.4-15.9-29.4-26.5-5-6.5-8.1-15.2-5.8-23.4,2.1-7.7,8.8-13.7,16.6-15.3,5.9-1.9,12.2.4,17.2,3.6,6.4,3.8,12,9,19.2,11.4,2.1.5,5.3,1.5,6.8-.9,4.1-4.9,4.5-11.6,4.4-17.8-.3-9.5-2.1-19.3,1.3-28.5Z" fill="#fff"/>
    <path d="M487.9,58.8c95.9-28.8,198.2-36,297.3-21.5,80.2,11.7,158.3,38,229.3,77,72.5,39.9,137.6,92.9,191.3,155.8,53.9,63,96.3,135.8,124.2,213.9,32.2,89.6,45,186,38.1,280.9-6.4,89.6-30.6,177.9-71.2,258.1-18.6,36.9-40.6,72-65.4,105-7,9.1-14,18.3-21.6,26.8-1.2-46.1-15.7-90.8-35.9-131.9,12.9,5.2,22.2,16,33.9,23.2-9.6-37.5-29.8-71.3-53.7-101.4-9.8-12.5-20.6-24.2-31.4-36,11.8.7,23,4.8,34.3,7.7-16.9-29.4-39.5-55.2-64.6-77.9-17.7-16-36.8-30.5-56.4-44.1,11.9-25.3,16.7-53.5,16.1-81.3,11.9,13.1,16.9,30.5,22.1,47.1,11.3-19.3,15.9-42,15.8-64.2-.3-30.9-9-61.3-22-89.2,15.5,7.4,28.6,19.1,40.5,31.2,1.7-18.5-3.1-37-9.8-54.1-6.2-16-14.4-31.1-22.8-46,29.5-19.3,53.5-47.2,67-79.9,15.2-36.2,17.2-77.5,6-115.1-7.5-25.4-20.4-49.3-38.2-69-7.6-8.8-15-17.9-24.4-24.8-4.3-3-9.2-5.9-14.6-6-6.1-.2-11.5,4.4-13.8,9.8-3,16.4,6.6,31.6,6.4,47.9,1.2,15.3-1.2,31-7.6,45-13,29.4-42.4,50-74,54.2-57.2-49.9-131.2-77.9-206.1-86.5,11.2-16.1,28.1-28.4,47.2-33.2-21.4-9.6-45.3-12.4-68.5-10.6-33.8,2.9-66.4,15.7-94.3,34.9.9-20.2,12.4-37.5,22.6-54.2-17,4.8-34,9.9-50.1,17.3-17,7.7-33,17.6-47.2,29.8-6.5,5.5-12.7,11.3-19,17.1-1.8,1.7-4.1,2.8-6.6,3.4-63.5,13.3-125.1,39.8-174.9,81.8-20.3-2.9-40.1-11.6-54.6-26.3-14.1-14-22.8-33-25.6-52.6-2.3-15.6-1-31.7,3.1-46.9,1-4,2.7-7.8,2.9-12,.4-4.9-.6-10.2-3.8-14.1-3.9-4.7-11.2-6.4-16.5-3.4-18.5,8.5-30.7,25.6-42.5,41.5-21.7,27.9-34.3,62.7-35.6,98-1.8,43.6,13.3,87.7,41.8,120.8,10.9,12.9,24,23.8,38.1,33-9.8,16.7-18.9,33.9-25.2,52.2-5.4,15.5-8.5,32-7.8,48.5,2.5-1.9,4.4-4.3,6.6-6.5,10-10.1,21.7-18.6,34.3-25.2-7.3,15.8-13.4,32.1-17.1,49.2-6,26.9-6.6,55.4,1.3,82,2.4,7.4,4.8,14.9,9,21.5,6.3-15.7,10.3-33.5,23-45.5-.8,27.5,4.2,55.6,16.6,80.3-29.8,20.5-58.6,43-83.1,69.8-14.5,16-27.6,33.4-37.7,52.5,11.1-3.4,22.3-6.9,33.9-7.9-19.5,21-38.5,42.7-53.8,67-13.9,21.8-25.1,45.5-31.4,70.6,11.9-6.8,21.2-17.6,34.1-22.8-20.5,40.2-34.6,84.4-35.9,129.7-.3,1.6.8,2.9,1.7,4.2-72.8-85.9-124-190-147.1-300.3-21-100-19.5-204.7,4.6-304.1,26.6-110.2,81.5-213.3,157.6-297.2,83.2-92.2,191.9-161.2,311-196.8Z" fill="#fff"/>
    <path d="M4651.2,223.4c16-.2,31.9.4,47.8,1.7,9.3,1,18.9,1.1,27.9,4.1,6.8,2.2,13.4,6.8,15.6,13.9,2.8,8.7,0,17.9-3.5,26-4.8,11.5-11.1,22.3-16.6,33.4-17.4,35.7-35.7,71-52.1,107.2-35.3,76.9-67.2,155.4-102.5,232.4-18.1,39.2-34.8,79-50.8,119.1-7.7,19.1-13.2,39.1-17,59.3-10.3,52.8-13.6,107-8.8,160.6,1.6,15.6,2.9,31.7,9.1,46.4,4.9,11,13,20.3,21.9,28.3,5.7,5.3,12.3,9.6,17.3,15.6,5.9,6.7,7.6,16.1,7.6,24.8-.4,14.5-8.9,27.4-19.7,36.5-6.4,5.6-13.7,10-21.4,13.7-38,18.8-79.2,31-121.2,36.5-16.3,2.1-32.5,5.2-49,4.7-8.9-.2-17.9-1.7-26-5.5-9.5-4.5-17.1-12.9-20.5-22.8-3.5-10.3-3.3-21.3-3.8-32.1-2.4-60.6,4.5-121.1,13.1-181,2.6-17.2,3-34.7,4.6-52,2.2-23.9,5.2-48.5-1-72.1-5.8-20.4-14.5-39.8-20.9-60-23.5-81.2-57-159.1-90.9-236.4-21.6-52.3-45.6-104.5-81.7-148.6-10.3-12.3-21.1-24.3-33.5-34.5-14.8-12.1-32-20.7-48.4-30.4-5.3-3.5-10.4-9.5-8.9-16.3,1.6-7.6,8.8-12.3,15.3-15.6,38.2-18.6,79-31.7,120.5-40.3,35.6-7,72.3-11,108.5-6.1,7.5,1.3,15.7,1.8,22.1,6.5,7.5,5.3,11.5,14.1,14,22.6,8.9,31.4,8.5,64.7,17.4,96.1,16.5,74.6,51.8,143.2,70.7,217.1,2.1,8.8,5,17.8,10.9,24.9,3.2,4,8.3,7.3,13.6,5.8,6.4-1.9,10.3-7.9,13.5-13.3,19.5-38,33.1-78.7,45.5-119.4,11.9-39.4,26-78.7,30.1-119.9,2.1-22,1.1-45.2-9.2-65.2-3.6-7.6-7.1-16.7-3.7-25,3.2-7.4,10.6-11.5,17.6-14.8,21.1-10.1,44.1-14.7,66.9-19,26.2-4.2,52.7-6.5,79.3-6.8Z" fill="#fff"/>
    <path d="M1542.3,232.1c111.9-.2,223.8,0,335.8,0,45.5,0,91.5,6.5,133.9,23.5,32.6,13,62.7,32.2,87.9,56.6,21.5,20.9,39.1,45.7,52.3,72.6,17.4,35.3,27,74.2,30.7,113.3,3.6,39.2,2.5,79-5.1,117.6-6.2,31-16.8,61.2-32.8,88.5-21.2,37-51.9,68.4-88.4,90.5-7.3,4.6-15.1,8.4-22.5,12.7,29.2,60.8,58,121.8,87.1,182.6,29.2,61.3,58.3,122.7,87.6,183.9-63.4.2-126.7,0-190,.1-51.9-110.8-103.4-221.9-155.4-332.7-48.9.2-97.8,0-146.8,0,0,110.8-.1,221.6,0,332.4-58.1.2-116.2.2-174.4,0,.2-220,0-440,0-660,0-94,0-187.9,0-281.9M1716.6,392.6c0,97.5,0,195.1,0,292.6h142.4c21.8-.1,43.9-2.7,64.6-9.9,26.5-9.1,50.4-26.8,65.1-50.8,11.6-18.5,17.9-39.9,20.2-61.5,1.9-18.3,1.7-36.9-1.1-55.1-3.3-21.3-10.7-42.3-23.3-59.9-16.3-23.3-41.3-39.6-68.4-47.5-22-6.7-45.2-8.2-68.1-7.8h-131.4Z" fill="#fff"/>
    <path d="M5325.4,266.7c7.3-1.8,15.6-1.7,22,2.7,7.2,4.9,10.7,13.4,12.7,21.6,4.3,17.4,2.2,35.4,2.5,53.1,0,26,.4,52-2.4,77.9-.6,6-2,12-1.6,18.1.5,13.3,5.6,26.7,15.2,36.1,6.8,6.6,16.3,11.1,26,10.2,16.7-1.2,33.3-4.6,50.1-3.9,8.5.4,17.5,2,24.4,7.3,6,4.6,9.1,11.9,10.1,19.2,1,6.9,0,13.8-1.3,20.6-2.8,14-8,27.5-14.5,40.2-7.3,13.7-16.4,26.7-28.2,37-9.4,8.1-21,14.4-33.6,14.9-10.1.2-20.5.4-30.1,4.1-6.8,2.5-12.6,7.7-15.9,14.2-3.3,6.5-4.9,13.8-5.4,21-2.4,87-5.4,174.4,4,261.1,2.3,21,5.3,42,9.3,62.8,2.3,13.3,5.6,26.4,10.4,38.9,6,16.5,13,32.7,17.3,49.8,3.5,14,5.1,29,.8,43-4.2,14-13.9,25.8-26,33.7-14.7,9.9-32,15.3-49.3,18.2-28.2,4.6-56.9,3.3-85.2,1-14.1-1.2-28.3-6.8-37.5-17.9-7.7-9.1-11.6-20.9-13.2-32.5-.9-8-2.6-15.9-3.1-23.9-1.8-22.4-.2-44.8.4-67.2,6.1-121.6,12.3-243.2,12.2-365,0-9.6-.3-19.3,0-29,0-6.9-1.6-14.2-6.2-19.5-4.7-5.5-11.7-8.4-18.6-10.2-12.1-3-24.5-4.4-37-5-8.6-.8-18.4-1.9-24.5-8.8-9-16.1-12.3-35.1-10.9-53.4,1.4-17.2,8-34.7,21.3-46.2,4.4-4.1,10.2-6.4,16-7.8,13.2-3.2,27.3-2.3,40.1-7.1,5.4-1.6,10.1-4.9,13.9-9,5.7-6.1,10.2-14.5,8.8-23.1-.9-5.9-5.9-9.9-10.1-13.6-7.5-6.3-16.2-11-23.1-17.9-4.1-4-7.3-9.4-7.2-15.3,0-7.4,3.9-14,7.7-20.1,7.6-11.6,19.6-19.1,30.1-27.8,34.1-26.4,69.4-51.4,106.9-72.8,7-4.2,14.4-7.9,22.4-9.8Z" fill="#fff"/>
    <path d="M783,349.5c37.1,3.2,74.5,9.7,108.3,26,24.6,11.8,47.1,29.9,60.5,54-19.6-9.2-40.2-19.6-62.5-18.3,7,9.3,10,21.2,9.6,32.8-.5,14.9-6.1,29.4-14.4,41.7-.2,0-.7,0-.9,0-3-23-15.3-46.5-37-56.6,1.5,17.9-2.9,36.1-11.6,51.7-11.5,20.8-30.1,37.4-51.8,47,8.9-29-1.8-63.5-27.2-80.7.9,1.6,2.4,3,2.7,4.9,2.9,18.8,3,38.4-1.8,56.9-.6,2.4-1.1,4.8-2.3,7-7.7-12.9-14.8-26.4-24.9-37.6-4.5-4.8-9.6-9.3-15.5-12.3-2.8,32,8.5,64.2,27.8,89.6-38-3.8-75.6-15.8-107.5-37.2-21.2-14.2-39.5-32.9-52.2-55,0,0-.3,0-.4,0-4.7,17.2-3.4,35.9,3,52.5-17.2-6.2-33.2-15.7-46.4-28.3-15.8-14.8-27.4-35.1-28.4-57.1-12.9,10.5-21.3,26.2-23.3,42.6-10.8-12.5-17.9-28.1-21.1-44.2-3-15.2-2.3-31.4,3.7-45.9,13.4-7.1,27-14,41.5-18.7-6.5,12-13.5,24.8-12.7,38.9,11.8-13.7,26.9-25.5,45.1-28.7-4.9,14.6-4.3,30.6-.3,45.4,2.6,9.6,6.2,19,10.7,27.9,1.4-22.3,10.2-44.5,26.2-60.4,3.2,16.1,10.6,31.2,20.6,44.2,11.9,15.5,27.2,28.3,43.8,38.5,6,4,12.6,6.9,18.6,10.6,0-.3,0-.9.1-1.2-15.2-24.7-25.8-53.2-24.6-82.6,13.2,21.2,36,34.7,59.7,40.9-19.2-18-32-44.2-29.3-70.9.4-.8-.3-2.4.9-2.8,10.6,10.9,25.4,15.9,39.4,20.7,21.2,7.2,42.3,16.9,58.1,33.3-2.3-18-13.2-33.8-26.2-46-6.4-6.3-13.8-11.3-20.9-16.6,18.3,1.8,36.4,7.1,52.5,16.1,15,8.3,28.3,20.1,37,35,1.1,1.7,1.8,3.8,3.3,5.2-.5-1.9-.7-3.8-.9-5.8-2-21.6-12.4-42.2-28.8-56.5Z" fill="#fff"/>
    <path d="M5113.3,415.3c1.1-1,2.2-2,3.4-3-.2,1.1-.4,2.1-.5,3.2-1,0-2,0-2.9-.1Z" fill="#fff"/>
    <path d="M2451,484.5c31.3-7.4,63.8-9.2,95.9-6.9,45.2,3.3,89.9,17,128.3,41.2,30.9,19.4,57.4,45.4,78.3,75.2,23.3,33.3,39.6,71.2,50.2,110.4,7.3,27.7,11.6,56.1,13.6,84.6,2,30.1,1.2,60.3,1.3,90.5-143.7,0-287.4,0-431.1,0,.9,25.2,4.5,50.6,13.1,74.5,7.3,20.1,18,39.1,33,54.5,14.9,15.5,33.9,26.9,54.5,33,20.7,6.2,42.7,7.3,64.1,5.1,22-2.3,43.8-9.6,61.9-22.5,20.6-14.6,35.7-36.3,42.9-60.5,51.2,4.6,102.5,9.3,153.7,13.9-8,39-24.9,76.3-49.8,107.5-25.4,32.2-58.8,57.9-95.9,75.2-41.1,19.4-86.7,28.1-131.9,28.5-45.1.6-90.8-6.7-132.1-25.3-45.1-20.2-84.2-53.2-112.6-93.5-30-42.4-49-91.9-58.4-142.7-6.4-33.9-8.7-68.5-8.1-102.9.6-38.4,5.2-76.8,15.1-114,14.6-54.1,40.9-105.7,79.4-146.7,18.4-19.5,39.6-36.5,62.7-50.1,22.4-13.1,46.8-22.8,72-28.7M2462.9,632.8c-23.5,12.3-42.2,32.7-54.3,56.1-11.6,22.2-17.8,46.8-20.1,71.6,89.8,0,179.5,0,269.3,0-2.7-28.4-10-56.9-24.7-81.6-10-17-23.9-31.8-40.7-42.1-16.9-10.5-36.6-15.9-56.4-17.3-25-1.8-50.9,1.7-73.2,13.4Z" fill="#fff"/>
    <path d="M3178,486.5c24.1-7.8,49.7-10,74.9-9,40.1,1.5,79.7,14,113.1,36.4,29,19.1,53.3,44.9,72.1,74,23.9,36.8,40.3,78.2,49.7,121,10.8,48.5,13.6,98.6,11.9,148.2-1.8,49.3-9,98.7-25.2,145.4-12.2,34.5-29,67.6-51.8,96.3-23,29-52.5,53.2-86.3,68.6-39,17.8-83.2,23.2-125.6,18-38.4-4.7-74.8-22.9-102.1-50.2-18.9-19.1-33.9-41.9-44.9-66.4-.8-.1-2.6-.3-3.4-.5-.1,123.3,0,246.6,0,370-56.3,0-112.6,0-168.9,0-.1-223.8,0-447.6,0-671.4,0-92.8-.1-185.5,0-278.3,55.4,0,110.7,0,166,0,.2,34.6,0,69.1,0,103.7,1.7,0,3.4,0,5.2-.1,8.8-18.8,20.5-36.3,34.2-52,21.4-24.8,49.9-43.4,81-53.7M3173.7,629.9c-9.1,1.3-18.1,3.7-26.6,7.2-30.2,12.3-53.1,38-67.3,66.7-20.6,41.4-26.1,88.5-25.6,134.2.7,43.3,7.8,87.7,28.3,126.4,15.1,28.5,39.6,53.3,70.6,63.9,20.4,7,42.7,8.2,64,4.5,17.4-3.1,34.1-10.5,47.9-21.5,14.9-11.8,26.7-27.1,35.5-43.9,20-38.5,26.7-82.4,27.7-125.4.8-45.4-3.5-92.1-22-134.1-12.6-28.5-33.2-54.9-61.8-68.6-21.9-10.5-47-12.9-70.8-9.5Z" fill="#fff"/>
    <path d="M3826.6,477.9c47.6-3.7,96.5.8,141.5,17.6,32.8,12.2,62.9,31.1,88.7,54.7,23.2,21.2,42.6,46.4,58,73.8,17.5,30.8,29.9,64.3,37.8,98.8,11.3,49.5,13.8,100.7,10.3,151.2-3.3,44.3-12.4,88.4-29.5,129.5-12.6,30.1-29.2,58.7-50.1,83.8-21.8,26.1-48.2,48.3-77.8,65.1-35.8,20.3-76.4,31.5-117.4,34.8-48.2,3.9-97.6-.6-143.1-17.8-58-21.7-107.6-64-140-116.6-20.4-32.8-35-69.2-43.9-106.7-11.6-49-14.4-99.8-11.2-150,3-44.9,11.8-89.7,28.8-131.5,13.3-32.7,31.4-63.6,54.5-90.3,20.9-24.2,46-44.8,73.8-60.6,36.5-20.8,77.8-32.4,119.6-35.7M3843.6,627.8c-20,1.8-39.6,9-55.6,21.2-15.3,11.5-27.7,26.5-37.2,43-21.1,37.3-28.8,80.6-30.5,122.9-1.6,44.9,2.2,90.8,18.6,133,7.5,19.1,17.7,37.4,31.7,52.5,11,12,24.3,22.1,39.4,28.5,19.7,8.5,41.7,10.6,62.9,8.1,18.7-2.2,37-9.1,52.1-20.5,15-11.2,27.2-25.9,36.6-42,21.9-38,30.1-82.2,31.8-125.5,1.5-44.9-2.6-90.9-19.4-132.9-7.5-18.5-17.5-36.2-31-51-10.6-11.7-23.4-21.7-37.9-28.1-19.1-8.6-40.6-11.1-61.3-9.1Z" fill="#fff"/>
    <path d="M4813.4,494.3c44.4-13.2,91.9-16.6,137.6-8.3,36.3,6.6,71.8,21.3,99.6,46,21.7,19.1,37.8,44.3,46.2,72,3.8,11.7,5.6,23.9,7.8,36,3.3,19.5,5.2,39.4,3.3,59.1-2.9,32-15.7,62.2-30.2,90.5-6.4,12.2-13.4,24.3-23.4,33.9-13.3,13.6-28.9,24.8-45.4,34.4-11.6,6.6-23.4,13-36,17.6-23.8,8.7-49,13.2-74.1,15.7-22.9,2.4-46,1.5-68.7,5.4-9.1,1.8-18.9,4.3-25.5,11.3-5.6,5.9-6.2,14.7-4.2,22.3,4.3,16.2,13.4,31.2,26,42.4,13.4,12,30.1,19.8,47.5,24,35.2,8.3,73.2,3.8,105.9-11.5,22.3-10.5,42.4-26.9,54.3-48.8,4.1-7.5,10-14.7,18.2-17.9,7.1-2.7,15.1-1,21.5,2.7,6.4,3.6,11.2,9.5,14.7,16,5.6,10.5,8.1,22.3,9.7,33.9,4.8,38.8-.8,79.2-17.9,114.5-12.9,26.5-33.5,50.2-60.5,62.8-33.4,16.1-70.3,23.2-106.9,26.7-44,4.1-89.2,1.8-131.6-11.6-28.3-8.9-55.1-22.8-77.6-42.1-4.8-3.9-8.7-8.6-12.8-13.2-26.2-30.2-46.2-65.5-60.3-102.9-17-45.1-25.9-93-27.7-141.1-2.1-58.5,5.9-117.5,24.7-173,1.8-5.6,4.5-10.9,7.4-16.1,2.6-4.9,5.3-9.8,7.5-15,4.6-8.8,8.4-17.9,12.2-27.1,2.6-6,4.4-12.4,7.9-18.1,14.8-25,32.8-48.2,53.7-68.5,27.8-24.5,61.5-41.6,96.9-52.2M4880.6,609.8c-16.5,1.9-31.9,9.7-44.1,20.6-12,10.7-21.7,23.8-29.1,38-10.1,19.2-16.7,40.2-20.1,61.6-1.6,10.3-3,20.9-.8,31.2,1.4,7.5,5,14.7,10.9,19.6,5.8,4.8,13.3,7.1,20.7,7.7,11.8.9,23.7-1.5,34.9-5.1,17.6-5.9,35.2-12.6,51.2-22.2,13.4-8,23.8-20.3,30.7-34.3,9.5-19.4,12.7-41.9,9.3-63.2-2.6-15.4-8.9-30.6-20.6-41.3-11.3-10.7-27.7-14.8-43-12.6Z" fill="#fff"/>
    <path d="M5678.5,595.8c8.5-1.1,18.1-1.9,25.5,3.2,7,4.9,9.5,13.9,10.3,22.1,1.1,14.7-.8,29.4-2.5,44-6.9,60.9-14.8,121.8-17.9,183.1-2.4,48.4-1.9,97,4.5,145,2.6,21.6,9.1,43.5,22.4,61,8.6,11.1,20.4,20.2,25.5,33.7,4,10.3,2,22.2-4,31.3-8.5,13.1-21.9,22.2-36.1,27.9-37.5,15.9-78.8,18.7-119,19.4-16.1.4-32.5-.2-47.9-4.9-11-3.4-21.5-10.6-26.2-21.3-3.9-8.4-4.6-18-3.9-27.1,2.5-34.6,9.1-68.7,12.8-103.2,3.6-31.5,2.6-63.2,2.3-94.9-.8-48.5-4-97.7-19.1-144-5.9-17.7-14.5-34.3-23.1-50.8-5.4-10.8-11-22.8-8.6-35.1,1.4-8.1,7.5-14.3,13.8-19.1,13.1-9.7,28.8-14.7,43.4-21.4,48.2-19.5,96.7-39.6,148.1-48.8Z" fill="#fff"/>
    <path d="M352.8,1125c-.6-44.7,9.9-90.5,34.8-128-8.4,37.6-11.7,76.5-8,114.9,3.8,38.2,15.3,76,36.5,108.1-7.9,35.5-9.8,73.8,3.8,108.2,3.8-7.6,7.8-15.3,13.6-21.6,2.3,16.6,5.5,33,9.4,49.3-44.3-16.8-87.1-38-126.8-63.8l.9-.2c-3.9-7.8-8.2-16-8.2-25,0-6.9,2.8-13.5,6.9-18.9,7.5,7.7,9.9,18.5,16.3,27,3.7,4.4,8,8.8,13.8,10.2,9.9,2.5,20.8-2.4,26.4-10.7,4.2-6.2,5.1-14.1,5-21.4-.6-17.8-8.5-34.2-13.1-51.2-7.1-25-11-50.8-11.4-76.8Z" fill="#fff"/>
    <path d="M991.2,1061c-1.1-21.5-4.7-42.8-9-63.8,1.3,2.2,2.7,4.5,4.1,6.7,18.4,29.7,28,64.4,30,99.2,2.6,44-5.6,88.2-20.5,129.5-3,10.3-4.7,21.4-2.5,32,.8,4.3,2.4,8.5,5.3,11.9,6.7,8.3,19.2,11.7,29,7,4.4-2,7.6-5.8,10.5-9.5,6-8.1,8.6-18.5,15.6-25.9,3.8,5.2,6.9,11.3,7.1,17.9.5,9.2-4,17.6-8.1,25.6.2.2.7.5.9.6-26.7,17.7-55.5,32.9-84.7,46.4-14.5,6.5-29.1,12.8-44.1,18.2.5-.2,1.5-.7,2-1,4.5-16,7.1-32.5,9.5-49,5,6.7,9.9,13.6,13.1,21.3,6-13.9,8.9-29,10-44.1,1.5-21.5-.9-43-5-64.1,6.8-10.7,12.8-22,17.7-33.8,16.4-39.4,21.5-82.8,19.1-125.2Z" fill="#fff"/>
    <path d="M615.6,1298.8c31.7,13.8,66.7,17.6,101,16.7,5.6,5.7,9.5,12.8,11.8,20.4,4.1,13.3,4.6,27.4,6.2,41.2.9,7,.3,14.1.3,21.1-26.2,1.9-52.6,2.3-78.9,1.2-2.4-.2-4.8.6-7.1-.2,1.8,0,3.5,0,5.3,0,.1-23.3,1.8-46.8,9-69.1-18.1-6-37.2-14.6-47.6-31.4Z" fill="#fff"/>
  </g>
  <g id="_x23_000000ff">
    <path d="M291.4,244.5c5.4-3,12.7-1.2,16.5,3.4,3.2,3.9,4.2,9.2,3.8,14.1-.2,4.2-1.8,8-2.9,12-4.1,15.2-5.3,31.3-3.1,46.9,2.8,19.6,11.5,38.5,25.6,52.6,14.5,14.7,34.3,23.4,54.6,26.3,49.8-42.1,111.4-68.5,174.9-81.8,2.4-.5,4.7-1.6,6.6-3.4,6.3-5.8,12.5-11.6,19-17.1,14.2-12.2,30.2-22,47.2-29.8,16.1-7.4,33.1-12.5,50.1-17.3-10.2,16.7-21.6,34-22.6,54.2,27.9-19.2,60.5-32,94.3-34.9,23.2-1.9,47.2,1,68.5,10.6-19.1,4.9-36,17.1-47.2,33.2,74.9,8.5,148.9,36.6,206.1,86.5,31.6-4.1,61-24.8,74-54.2,6.4-14,8.8-29.7,7.6-45,.1-16.3-9.4-31.5-6.4-47.9,2.3-5.4,7.7-10,13.8-9.8,5.4.1,10.3,3,14.6,6,9.4,6.9,16.9,16,24.4,24.8,17.8,19.7,30.7,43.6,38.2,69,11.2,37.6,9.2,78.9-6,115.1-13.5,32.7-37.5,60.6-67,79.9,8.3,14.9,16.5,30,22.8,46,6.7,17.1,11.5,35.6,9.8,54.1-12-12.2-25-23.8-40.5-31.2,13,27.9,21.7,58.2,22,89.2.2,22.2-4.4,44.9-15.8,64.2-5.1-16.5-10.2-34-22.1-47.1.6,27.8-4.2,56-16.1,81.3,19.6,13.6,38.7,28.1,56.4,44.1,25.1,22.7,47.7,48.5,64.6,77.9-11.4-2.9-22.5-7-34.3-7.7,10.8,11.7,21.5,23.4,31.4,36,23.8,30.1,44.1,63.9,53.7,101.4-11.7-7.2-21-18-33.9-23.2,20.2,41.1,34.8,85.8,35.9,131.9v.2c-35.2,42-75.5,79.7-119.6,112.2-4.3,3.3-9.1,6.2-13.2,9.7-7.6,5.3-15.7,9.9-23.1,15.5l-.4-.3c-.2-.2-.7-.5-.9-.6,4-8,8.5-16.4,8.1-25.6-.2-6.6-3.3-12.7-7.1-17.9-7.1,7.4-9.6,17.8-15.6,25.9-2.9,3.7-6.1,7.5-10.5,9.5-9.8,4.7-22.3,1.3-29-7-2.9-3.4-4.4-7.6-5.3-11.9-2.2-10.6-.5-21.7,2.5-32,15-41.3,23.2-85.5,20.5-129.5-2.1-34.8-11.6-69.4-30-99.2-1.4-2.2-2.8-4.4-4.1-6.7,4.3,21,7.9,42.3,9,63.8,2.4,42.4-2.7,85.8-19.1,125.2-4.9,11.8-10.8,23-17.7,33.8,4.1,21.1,6.5,42.6,5,64.1-1.1,15.1-4,30.1-10,44.1-3.2-7.8-8.1-14.7-13.1-21.3-2.4,16.4-5,32.9-9.5,49-.5.2-1.5.7-2,1-60.8,23-125.1,36.8-189.9,41.5,0-7,.5-14.1-.3-21.1-1.6-13.8-2-27.8-6.2-41.2-2.3-7.6-6.1-14.8-11.8-20.4-34.3.9-69.3-2.9-101-16.7,10.4,16.8,29.5,25.4,47.6,31.4-7.2,22.3-8.9,45.8-9,69.1-1.8,0-3.6,0-5.3,0-70.3-4-140.1-18.1-206-43.2-4-16.3-7.1-32.7-9.4-49.3-5.8,6.3-9.8,14-13.6,21.6-13.6-34.4-11.7-72.7-3.8-108.2-21.2-32.2-32.8-70-36.5-108.1-3.7-38.4-.4-77.3,8-114.9-24.9,37.6-35.5,83.3-34.8,128,.4,25.9,4.3,51.8,11.4,76.8,4.6,17,12.5,33.4,13.1,51.2,0,7.3-.8,15.2-5,21.4-5.6,8.3-16.5,13.3-26.4,10.7-5.8-1.4-10.1-5.8-13.8-10.2-6.4-8.4-8.8-19.3-16.3-27-4.1,5.4-7,12-6.9,18.9,0,9,4.3,17.1,8.2,25l-.9.2c-6.7-4.2-13.6-8.7-20.3-13.1-15.3-11.1-30.7-22-45-34.3-2.1-2.1-5.1-3.2-6.9-5.6-23-19.1-44.3-40.2-64.8-62-5.7-6.8-11.7-13.2-17.4-20-.9-1.3-2-2.6-1.7-4.2,1.4-45.4,15.4-89.5,35.9-129.7-12.9,5.2-22.2,16-34.1,22.8,6.3-25.1,17.4-48.9,31.4-70.6,15.3-24.3,34.3-46,53.8-67-11.6,1-22.8,4.5-33.9,7.9,10.1-19.1,23.2-36.5,37.7-52.5,24.5-26.8,53.2-49.3,83.1-69.8-12.4-24.7-17.4-52.8-16.6-80.3-12.7,12-16.7,29.8-23,45.5-4.2-6.6-6.6-14.1-9-21.5-8-26.5-7.3-55.1-1.3-82,3.7-17,9.8-33.4,17.1-49.2-12.6,6.6-24.2,15-34.3,25.2-2.2,2.2-4.1,4.7-6.6,6.5-.8-16.5,2.4-32.9,7.8-48.5,6.4-18.3,15.4-35.5,25.2-52.2-14.1-9.3-27.2-20.2-38.1-33-28.5-33-43.6-77.2-41.8-120.8,1.3-35.3,13.8-70.1,35.6-98,11.8-15.8,23.9-33,42.5-41.5M783,349.5c16.3,14.3,26.8,34.9,28.8,56.5.1,1.9.3,3.9.9,5.8-1.5-1.5-2.2-3.5-3.3-5.2-8.7-14.9-22-26.7-37-35-16.1-9-34.2-14.2-52.5-16.1,7.1,5.3,14.6,10.4,20.9,16.6,13,12.2,23.9,27.9,26.2,46-15.8-16.3-36.9-26.1-58.1-33.3-14.1-4.8-28.8-9.9-39.4-20.7-1.1.3-.5,1.9-.9,2.8-2.7,26.7,10.1,53,29.3,70.9-23.7-6.2-46.5-19.7-59.7-40.9-1.2,29.3,9.4,57.9,24.6,82.6,0,.3,0,.9-.1,1.2-6.1-3.8-12.6-6.7-18.6-10.6-16.6-10.2-31.9-23-43.8-38.5-10-13-17.4-28.1-20.6-44.2-16,15.9-24.8,38.1-26.2,60.4-4.4-9-8.1-18.3-10.7-27.9-4-14.8-4.6-30.7.3-45.4-18.2,3.2-33.3,15-45.1,28.7-.8-14.1,6.2-26.9,12.7-38.9-14.5,4.8-28.1,11.6-41.5,18.7-6,14.5-6.7,30.6-3.7,45.9,3.2,16.2,10.3,31.7,21.1,44.2,2-16.5,10.4-32.2,23.3-42.6,1,22,12.6,42.3,28.4,57.1,13.2,12.6,29.3,22.1,46.4,28.3-6.4-16.6-7.7-35.3-3-52.5.1,0,.3,0,.4,0,12.8,22.1,31,40.9,52.2,55,31.8,21.4,69.4,33.3,107.5,37.2-19.3-25.4-30.6-57.5-27.8-89.6,6,3,11,7.4,15.5,12.3,10.2,11.2,17.2,24.7,24.9,37.6,1.3-2.1,1.7-4.6,2.3-7,4.7-18.6,4.7-38.1,1.8-56.9-.2-1.9-1.8-3.3-2.7-4.9,25.4,17.1,36.1,51.7,27.2,80.7,21.7-9.5,40.3-26.2,51.8-47,8.7-15.6,13.1-33.8,11.6-51.7,21.8,10.1,34,33.6,37,56.6.2,0,.7,0,.9,0,8.2-12.3,13.9-26.8,14.4-41.7.4-11.5-2.5-23.5-9.6-32.8,22.3-1.4,42.9,9,62.5,18.3-13.4-24.2-35.8-42.2-60.5-54-33.8-16.2-71.2-22.8-108.3-26Z"/>
  </g>
</svg>
