<svg version="1.2" xmlns="http://www.w3.org/2000/svg" viewBox="0 0 5926 1468" width="5926" height="1468"><defs><clipPath clipPathUnits="userSpaceOnUse" id="cp1"><path d="m714 44c378.31 0 685 306.69 685 685 0 378.31-306.69 685-685 685-378.31 0-685-306.69-685-685 0-378.31 306.69-685 685-685z"/></clipPath></defs><style>.a{fill:#fff}</style><g clip-path="url(#cp1)"><path fill-rule="evenodd" class="a" d="m714 44c378.3 0 685 306.7 685 685 0 378.3-306.7 685-685 685-378.3 0-685-306.7-685-685 0-378.3 306.7-685 685-685z"/><path  d="m1087.4 266.3c16.7-28.1 47.3 16.7 59.7 29.9 63.9 83.2 46.2 197.9-42 255.8 16.3 28.8 36 66.3 32.6 100.1-11.9-12.3-25-23.8-40.5-31.4 22 46.6 33.2 106.7 6.3 153.5-5.1-16.2-10.5-34.6-22.1-47.1 0.7 27.8-4.3 56.1-16.1 81.3 47.3 32.6 92 71.7 121.1 122.1-11.4-3.1-22.8-7.1-34.7-7.8 37.2 38.8 71.7 84.6 85.3 137.3-11.8-7-21.2-18.2-34-23.1 27.1 54.5 44 116.8 32.2 177.8-2.9-5.1-5.8-10.2-8.9-15.2-3.4-5.5-2.4 4.8-6.3-0.5 0.5 8.4-4 1.4-4.3 10.2-1.8 56.3-21.1 117.3-77.8 137.8-20.3 9-61.1 21.7-66.1-10.6-2.2-26.8 32.5-45.8 10.9-74.3-8.1 8.3-10.1 20.4-18.1 28.8-12.1 15.8-37.5 8.6-41.7-10.1-3-11-1.3-22.6 1.6-33.5 27.9-75.6 33.4-167-13.5-236.2 16.9 73.9 14.4 157.6-27.6 222.9 7.1 35.6 9.1 74.1-4.9 108.3-3.1-7.9-8.2-14.8-13.2-21.6-2.5 17-5 34-10 50.6 20.2 10.8 41.6 20.6 58.3 36.4 22.8 23.7 11.3 61.8-24.2 58.3 5.4-20.6-10.5-44.7-32.4-45.6 32.2 32.6 7.2 67.3-35.1 56.6 6.8-24-8.2-51-34-53.2 14.6 12 23.5 37.4 6.6 51.2-7.9 6.1-18.2 6.4-27.7 5.8-15.3-1.4-30.6-0.6-46-0.8-67.8 4.7-56.1-34.2-56.8-84.7-2.7-21.7-1.9-49.8-18.4-65.8-34.4 0.8-69.4-2.8-101.2-17 10.3 16.9 29.8 25.6 47.9 31.7-10.9 32.4-8.8 67-8.9 100.7 1 18.7-14.8 34.3-33.4 34.3-34.4 1.5-69.2 0.6-103.7 1.5-29.6-5.7-25.6-40-7.3-56.5-25 2.5-40.5 29.4-33 52.7-42.4 11.3-67.3-23.1-35.8-56.5-22.6 0.9-37.3 25.4-32.2 46.4-22.8 3.1-42.9-20.2-34.1-42.1 10.9-28.6 44.5-38.1 68.3-53.5-4-16.7-7.3-33.5-9.6-50.6-5.8 6.3-10 14.1-13.6 21.8-13.6-34.7-11.8-72.7-3.8-108.4-43-65.2-45-149-28.6-223.2-43.5 66.5-43 153.5-16.5 226.4 4.1 13.7 8.5 28.4 4.8 42.7-3.5 17.5-27 27.3-40 13.2-9.6-8.3-11.1-22.2-20.2-31-25 33.6 28.7 57.3 6 87.2-16.5 15.5-40.5 5.7-58.6-1.6-58.1-18.8-79.6-82.9-80.1-140.2-0.1-8-3.7-2.9-3-10.5-4.3 4.6-4-3.1-7.3 2.3-3.1 5-6 10.3-9 15.4-11.3-60.5 4.5-123.6 32.5-177.5-12.8 5-22.4 16-34.3 23 13.2-53.2 48.1-98.9 85.5-137.8-11.7 1-23 4.5-34.3 8 27.7-51.2 73.5-89.8 120.9-122.3-12.5-24.6-17.5-53.1-16.6-80.6-12.1 11.6-17.2 30.7-23.2 46.3-24.7-47.8-15.5-106.5 7.2-153.2-15.6 8.2-29.6 19-41.1 32.4-2-36.1 15.3-70.9 33-101.4-82.6-52.2-105.6-165.5-48.7-245.7 13.8-18.3 28.1-40.9 50.4-48.8 15.8-1.2 19.7 15 14.9 27.3-18 60.3 11.3 120.2 76.2 129.4 48-40.6 106.5-66.3 167.5-80.3 4.8-1.2 10.2-1.1 13.9-4.8 12.8-11.8 25.5-23.9 40.5-33 23.1-14.9 49.2-24.2 75.7-31-10 16.4-21.5 33.9-22.4 54 47-32.2 109-47.3 163-24.4-19.1 4.9-36.2 17.2-47.4 33.4 75 8.5 148.8 36.5 206.2 86.5 48.9-7 85.7-48.5 81.5-98.7 0.5-16.7-9.9-32.9-6.2-49.4m-275.7 97.4c18.4 15.2 28.7 38.7 29.5 62.3-16.8-34.4-56.3-53-92.9-56.4 22.3 14.3 44.2 35.8 47.9 63-16.9-18-40.7-27.9-63.8-35.4-12.4-4.4-25.1-9.6-34.4-19.3-4.2 27.7 8.9 55.5 29 74.2-23.7-6.3-46.8-19.8-59.8-41.1-1.2 30.1 9.8 58.7 25.3 84-38.3-18.5-75.2-50-83.8-93.4-16 16-24.8 38-26.2 60.5-10.9-22.6-18.8-48.7-10.2-73.5-18.2 3.5-33.7 14.9-45.1 29.1-0.9-14.2 5.9-27.3 12.8-39.1-14.5 4.4-28.1 11.7-41.6 18.6-12.3 28.8-3 66.6 17.3 90.3 2.1-16.9 10.4-32.1 23.4-42.9 1.6 40.9 38.3 72.6 74.8 85.6-6.6-16.8-7.8-35.7-2.9-53 32.1 56.6 97.1 86.5 159.9 92.7-19.3-25.3-30.7-57.6-27.7-89.7 19.6 10.9 29.2 32 40.6 50.2 7-21.4 7.2-43.7 3.6-65.6-0.9-1.1-1.9-2.1-2.3-3.5 25.2 17.5 36.1 51.4 27 80.7 38.1-16.5 67-56.1 63.5-98.7 22.3 10.5 34.2 34.1 37.2 57.7 15.3-21.8 22-52.6 5.6-75.6 22.5-1.4 42.8 9.3 62.5 18.3-33.1-57.8-107.3-75-169.2-80z"/></g><path fill-rule="evenodd" class="a" d="m5641.2 30.9c3.5-16.4 25.9-22.9 37.3-10.4 13.6 15.5 0.6 42 9.7 59.1 9.2 4.1 28.3-22.5 42.1-19.7 16.1-0.2 24.3 19.6 18.7 33-16.7 30-66.5 43.1-64.7 82.3 1.1 15.9-2.9 38.2 3.4 52 7 7.6 18.1-1.1 25.3-4.6 15.4-9.3 33-15.6 45.2-28.8 17.3-19 8.6-84.1 33.2-90.7 10.7-3.5 27.1-2.1 30.7 10.3 2.5 8.3-0.6 18.8-1 27.6-1.9 26.2 21.6 5 32.7-0.6 9.9-5.5 22.3-11.2 33-4.9 11.3 6.9 11.9 27.1 2.1 36.2-8.5 10.7-61.5 23.7-30.6 38.4 7.9 3.8 17.5 6.1 22.8 11.9 9.6 9.9 6.2 29.5-6.7 35.2-27.3 9.2-65.7-29.5-95.7-20.9-19.4 8.3-37.4 20.3-55.7 30.7-25.8 15.5 30.9 33 40.7 41.7 35.6 31.5 99.6-40.4 121.2-1 11.7 32.9-28.2 25.5-34.9 44.5 7.3 17.4 37 18.3 43.9 36.5 5.4 12.6-3.7 28.3-17.7 28.8-13.9 5.5-55.6-34.7-55.6-10.9-0.1 11.4 5.5 24.1 0.5 34.5-9.4 18.1-39.4 17-43.4-4.9-7.7-24.2-5.9-52.1-18.5-74.6-14.5-16-36.4-23.9-54.2-35.9-16.5-10.2-20.2 2.7-19.6 19.1-2.7 67 0.2 58 49.2 101.5 35.7 22.2 5.2 68.9-27.7 37.6-7.8-6.2-18.1-15.3-21-3.2-3.1 15.9 4 36.9-6.4 50.4-7.4 8.6-21.6 10.5-30.8 3.8-19.1-14.4-2.2-43.1-13.9-60.2-11.5-4-25.3 22.1-40.4 20.1-9.5 0.3-16.8-7.4-18.8-16.5-7.2-33.2 50.2-51.1 62-78.5 5.1-15.3 1.3-32 2.3-47.8-0.4-8.6 1.6-23.8-3.8-29-9.6-7.6-47.2 23.1-59.3 28.5-22.1 15.6-19.9 49.4-27.6 73.3-0.9 19.9-18.5 35.5-37.9 24.4-12.7-8-7.4-23.7-5.9-36.6 4.5-34.4-35.3 3.5-49.4 5-17.8 5.7-34.2-15.9-24.7-31.4 9.1-14.5 35.6-18.2 42.3-33.8-4.7-15.7-40.5-11.9-37.9-33.6 0.6-8.7 6.1-18.2 13.7-22.4 25.8-9.3 51.5 12.7 76.2 18.6 26.6 9.5 51.9-19.7 76-30.7 5-2.9 12.2-7.1 5.8-12.2-15.6-12-33.5-21.3-50.7-31.1-35.3-22.8-73.2 23.6-108.2 14.7-12-5.2-18-23.6-7.9-33.1 9.7-9.4 52.3-16.4 23.3-32.9-13.4-9.1-35.6-15.4-35.6-34.6 0.5-12.8 14.1-21.3 26.5-19.8 15.2-1.1 54.1 41.6 52.8 6.4-4.2-18.6-8.7-37.8 16.1-40.9 45.6 0.9 16.6 83.2 53.8 100.8 12.3 5.5 47.6 34.2 58.1 27.2 7.7-8 4.7-57.6 2.8-70.7-8.4-29.1-68.1-47.3-63-79.1 1.7-8.7 8.3-15.5 17-17.3 15.5-5.3 28.9 17.3 42.1 15.4 11.3-10.6 1.5-32 6.5-45.7zm-301.7 255.4c47.7-23.4 54 19.1 52.3 56.6-0.4 33.4 1.1 67-3.3 100.2-4.4 24.1 9.8 55 36.5 57.4 30.6-0.6 88.4-19.6 89.1 28.8-1.2 38.1-35.6 104.8-78.3 106.4-29.4 0.2-47.4 5-51.1 37.9-3.1 113-7.4 228.3 16.1 339.6 10.1 45.9 51.3 100.3 10.8 142.2-35.9 34.4-99.5 31.9-146 28.1-33.2-3.5-48.3-24.6-51.1-56.6-5.3-27.8-2.7-56-2.1-84.1 6.6-130 13.2-260 12.2-390.2 2.3-30.5-19.1-34.3-43.9-37.9-13.6-2-32.5 0.4-42.1-9.9-17.3-30.6-16.2-80.9 13.9-102.6 15.6-9.7 36.1-5.6 52.9-12.3 13.3-3.5 28.7-23.7 20.4-37.5-15-19.6-51.9-25.6-33.3-57.1 3.9-7.5 9.9-13.8 16.4-19.2 41.1-32.8 84.1-63.9 130.1-89.5zm-593.6 273.8c116-102 358.5-89.6 385.8 83.2 11.2 57.6 8.7 93.5-23.1 156.8-5.4 10.7-11.3 21.1-18.6 30.3-19.2 21.8-42.5 37.1-69.4 50.9-38.6 19.8-89.6 24.7-123.8 25.8-38.6 2.1-82.5 3.5-63.8 47.2 34.5 86.4 188 75.8 231-5.5 6.6-11.3 17.4-20.8 31.2-17 20.3 5.4 28.1 28.1 31.2 46.8 10.1 62-8.8 137.8-61.9 174.8-47.5 31.3-132.6 40.7-189 36.4-54.3-4.4-106.5-21.9-146.4-57.8-137.6-144.6-126.8-433.3 16.4-571.5 143.1-138.1 0.4-0.4 0.4-0.4zm152.3 66c-23.6 6.7-41.6 24.2-54.9 44.5-16.5 25.8-26.2 57.5-28.9 88-2.7 45.9 33 51.1 71 37.7 16.4-5.7 31-11.4 45.5-19.7 68.8-38.3 54.8-173.8-32.1-150.7zm662 32.3c45.9-18.7 92.4-37.6 141.2-47.5 6.7-1.3 14.1-2.4 20.7-1.6 25.7 2.5 22 33.8 20.7 53-13.2 117.8-31.7 237.5-13.9 355.9 3.3 16.2 8.6 32.4 18.1 46.2 8 11.9 20.4 21.1 26.5 33.5 13.8 27.6-11.9 52.3-36 62.3-40.9 18.1-87.9 20.2-132.4 20.5-35.6-1-69.1-8-67.3-51.2 3.2-49.2 15.4-97.8 15.5-147.4 0.3-16.1 0-32.1-0.2-48.2-0.6-48.5-3.3-97.4-17.6-144-5.4-17.6-13.4-34.4-22.1-50.7-7.7-14.7-17.5-33.3-7.7-48.8 11.6-16.3 35.8-23.3 53.9-31.8z"/><path class="a" d="m4602.4 243.9c45.8-7.2 92.8-8.6 138.9-3.6 22.4 1.8 37.3 11.8 29.2 36.5-4.7 13.6-12.2 26-18.6 38.9-12.7 26.4-26.2 52.5-38.9 78.9-40.2 84.6-74.9 171.6-113.9 256.8-19.7 42.4-37.7 85.4-54.9 128.9-5.4 14.3-9.6 28.9-12.9 43.8-12.3 58.1-16.3 118.1-10.4 177.2 1.5 12.1 2.8 24.6 6.9 36.1 5.9 16.3 18.8 28.9 32.4 39.7 5.2 4.3 10.3 9 13 15.3 11.7 31.2-11.5 55.4-38.3 68-37.5 18.6-78.2 30.7-119.8 36.2-30.7 3.9-76.4 15.1-94.3-18.2-5.8-11.2-5.5-24.3-6-36.8-2.5-62.4 4.8-124.5 13.7-186.1 2.2-17.5 2.6-35.1 4.4-52.7 2.3-23.7 4.5-48.2-2.8-71.2-6.5-21.4-15.8-41.8-21.9-63.3-23.3-78.9-56.1-154.6-89.1-229.9-25.9-63.2-56.2-126.7-106.3-174.6-15.6-14.9-34.8-25.3-53.7-35.8-6.2-3.4-12.8-9.3-12.1-16.5 0.5-8.5 9.3-14.3 16.7-17.8 63.8-31.4 169.2-59 239.6-43.8 17.5 3.6 23.2 20.5 26.6 36.2 6.7 28.2 6.9 57.8 14.8 85.6 16.4 75.4 52.3 144.5 71.2 219 6.6 29.3 25.4 45.7 40.9 10.5 17.2-34.7 29.5-71.3 40.9-108.2 15.5-52.6 47.7-134.8 24.2-186.5-10.2-19.7-11.1-32.5 11.4-43 21.4-10.4 45.3-15.2 68.6-19.5z"/><path fill-rule="evenodd" class="a" d="m1571.3 1188.4v-942h335.1q96.2 0 165 37.9 68.9 38 105.6 106.9 36.7 68.9 36.7 163.1 0 93.6-38.1 161.2-38.2 67.7-108.7 104-2 1-4 2l174.7 366.9h-190.1l-155.2-332.5h-146.9v332.5zm174.1-488.7h141.1q49.5 0 83.4-17.4 33.8-17.4 51.5-49.9 17.6-32.6 17.6-78.1 0-46.2-17.6-79-17.7-32.9-51.8-50.6-34.1-17.7-83.6-17.7h-140.6zm811.9 503.2q-93.9 0-162.8-44.5-68.8-44.6-106.4-124.6-37.5-80-37.5-186.2 0-104.9 37.8-185.2 37.8-80.3 105.3-125.8 67.4-45.5 156.7-45.5 64.3 0 118.7 23.7 54.3 23.7 94.1 69.2 39.9 45.5 62 110.6 22.2 65.1 22.2 148v51.2h-431.1q1.5 49.2 17.5 85.6 17.6 40.2 50.3 61.4 32.7 21.1 77.1 21.1 31.9 0 56.9-10.1 25.1-10.1 42.4-29.1 17.4-18.9 25.3-44.8l153.7 13.9q-13.1 62.6-52.1 110.3-39 47.7-97.9 74.3-58.8 26.5-132.2 26.5zm-140-428h269.4q-3.3-34.1-14.5-61.3-15.9-38.6-46.1-59.4-30.2-20.9-73.4-20.9-42.7 0-73.1 21.2-30.5 21.2-47 58.8-12 27.5-15.3 61.6zm502.9 677.7v-949.5h166.1v103.6h5.1q15.4-32.2 39.8-58.1 24.5-25.9 59.2-41.4 34.7-15.5 80.3-15.5 73.9 0 132.2 42.3 58.4 42.4 92.2 121.7 33.9 79.4 33.9 190 0 110.7-33 190.3-33 79.7-91.6 122.7-58.6 43-134.9 43-44.9 0-79.4-15.8-34.4-15.8-58.6-42.7-24.2-26.9-38.9-60.4h-3.5v369.8zm302.2-403.3q42.6 0 72.8-24.7 30.2-24.6 46.1-70.5 15.9-45.8 15.9-108.4 0-62.6-15.9-107.8-15.9-45.2-46.1-70.1-30.2-25-72.8-25-43.3 0-74.6 25.3-31.3 25.3-48 70.5-16.8 45.2-16.8 107.1 0 61.4 16.8 107.2 16.7 45.8 48.3 71.1 31.6 25.3 74.3 25.3zm663.3 153.6q-92.7 0-162.2-44.5-69.4-44.6-107.5-124.6-38.1-80-38.1-186.2 0-106.8 38.1-187.1 38.1-80.3 107.5-124.9 69.5-44.5 162.2-44.5 93.9 0 162.7 44.5 68.9 44.6 107 124.9 38.1 80.3 38.1 187.1 0 106.2-38.1 186.2-38.1 80-107 124.6-68.8 44.5-162.7 44.5zm0-150.4q43.2 0 73.7-25.6 30.4-25.6 46.9-71.8 16.5-46.1 16.5-108.1 0-62-16.5-108.1-16.5-46.2-46.9-71.8-30.5-25.6-73.7-25.6-42.7 0-73.4 25.6-30.7 25.6-46.9 71.5-16.2 45.8-16.2 108.4 0 62 16.2 108.1 16.2 46.2 46.9 71.8 30.7 25.6 73.4 25.6z"/></svg>